<svg width="24" height="24" viewBox="0 0 24 24" fill="none" xmlns="http://www.w3.org/2000/svg">
<path fill-rule="evenodd" clip-rule="evenodd" d="M10.2357 13.1948L13.1745 15.1269V18.7118L10.2222 24.0001L10.2357 13.1948Z" fill="#666666"/>
<path fill-rule="evenodd" clip-rule="evenodd" d="M7.79609 11.6685L10.729 13.3677L2.02344 18.6552L4.86489 13.4837L7.79609 11.6685Z" fill="#999999"/>
<path fill-rule="evenodd" clip-rule="evenodd" d="M21.4688 6.78189L15.8664 6.75395L13.168 5.13172L10.2351 0L21.4688 6.78189Z" fill="#999999"/>
<path fill-rule="evenodd" clip-rule="evenodd" d="M10.2399 0L13.1728 5.13172L13.1788 12.2049L10.2222 11.3006L10.2399 0Z" fill="#666666"/>
<path fill-rule="evenodd" clip-rule="evenodd" d="M2 5.16309L4.87447 10.3896L4.86516 13.4834L2.02371 18.6549L2 5.16309Z" fill="#666666"/>
<path fill-rule="evenodd" clip-rule="evenodd" d="M2 5.16309L21.427 17.0504L15.8601 17.0894L4.87447 10.3896L2 5.16309Z" fill="#CCCCCC"/>
<path fill-rule="evenodd" clip-rule="evenodd" d="M15.8695 6.75391L21.472 6.78185L13.1796 11.8805L13.1711 8.399L15.8695 6.75391Z" fill="#999999"/>
<path fill-rule="evenodd" clip-rule="evenodd" d="M13.1745 18.7115L15.8619 17.0892L21.4288 17.0503L10.2222 23.9998L13.1745 18.7115Z" fill="#999999"/>
</svg>
